<svg width="279" height="279" viewBox="0 0 279 279" fill="none" xmlns="http://www.w3.org/2000/svg">
<path d="M39.9566 0.515011C16.3149 2.26396 -1.75066 21.0909 0.368649 43.8478C2.03529 61.7694 15.8211 78.4152 35.1418 79.2589V243.907H199.769C200.633 263.228 217.279 277.013 235.18 278.68C257.937 280.799 276.744 262.734 278.513 239.092C280.571 211.376 262.464 183.455 236.106 174.237C229.44 171.912 222.526 170.142 215.592 168.887C205.386 167.056 195.284 168.558 185.675 172.365C178.247 175.307 171.045 178.846 163.782 182.241C154.564 186.583 145.449 191.212 136.19 195.43C128.145 199.093 117.569 201.665 108.783 201.994C88.6597 202.981 81.2523 201.994 78.166 200.883C81.6639 203.804 85.2235 206.5 88.8448 208.907H70.1414V190.204C72.5488 193.846 75.2442 197.405 78.166 200.883C77.0549 197.796 76.0878 190.389 77.0549 170.266C77.3635 161.48 79.9561 150.883 83.6186 142.859C87.8366 133.579 92.4662 124.485 96.8077 115.267C100.223 108.024 103.742 100.802 106.684 93.3739C110.491 83.7649 111.993 73.6622 110.161 63.4566C108.906 56.5226 107.137 49.6091 104.812 42.9425C95.5731 16.5642 67.6517 -1.54255 39.9566 0.535607V0.515011ZM136.951 205.368C149.214 202.735 157.671 198.64 160.552 195.574C151.972 198.002 140.696 202.611 131.272 202.364C141.005 199.422 152.795 193.455 160.86 189.669C167.136 186.727 173.309 183.62 179.564 180.615C198.226 171.644 217.012 171.83 236.045 179.402C250.756 185.266 261.97 195.06 268.781 209.71C276.25 225.78 276.126 241.911 266.764 257.219C255.736 275.223 233.678 278.207 217.609 266.808C200.716 254.833 203.596 233.413 212.588 223.002C223.102 210.821 241.703 212.858 249.501 227.096C251.806 231.314 252.773 235.8 251.538 240.553C250.818 243.29 249.604 245.738 246.209 245.944C247.505 241.479 248.308 238.537 246.785 233.187C245.674 227.734 241.353 225.101 236.991 223.331C241.106 227.878 243.143 231.068 243.678 236.458C244.131 241.088 241.662 247.569 238.781 251.129C235.407 255.306 231.23 255.388 227.279 251.685C235.859 246.911 238.946 241.973 237.711 232.775C237.012 227.631 230.736 221.747 231.888 223.845C234.831 229.195 236.147 236.623 232.773 241.705C232.197 242.59 231.086 244.174 229.851 245.121C233.658 231.973 228.246 224.812 219.008 223.948C220.571 224.792 222.567 226.109 223.37 227.096C229.666 234.833 228.04 239.236 222.464 247.59C220.139 251.088 220.427 253.557 223.493 256.273C228.843 261.026 237.464 260.059 242.341 253.886C244.007 251.787 245.386 250.409 248.328 250.203C250.324 250.059 253.102 248.269 253.904 246.458C256.435 240.8 259.686 235.388 259.913 228.763C260.674 206.932 240.407 188.229 219.152 191.233C209.851 192.549 201.354 196.047 193.164 200.574C188.391 203.208 183.514 205.697 178.638 208.146C177.712 208.619 176.539 208.578 175.49 208.784C184.667 201.068 193.823 193.846 204.872 189.71C213.082 186.644 224.872 185.883 233.411 188.105C229.563 185.862 223.246 184.628 217.691 184.772C210.16 184.957 203.308 187.755 196.477 190.759C196.415 190.801 196.333 190.821 196.271 190.862C196.374 190.801 196.477 190.718 196.58 190.657C196.745 190.163 196.786 189.504 197.115 189.216C204.09 183.414 211.888 179.916 221.024 180.245C223.72 180.348 226.436 180.677 229.131 180.883C218.802 176.439 208.884 177.982 199.543 183.393C194.358 186.397 189.646 190.224 184.708 193.702C180.058 196.973 175.407 200.245 170.737 203.496C174.399 199.586 178.103 195.656 182.053 191.438C179.975 191.891 178.226 192.282 176.477 192.673C180.654 186.192 187.424 183.085 193.329 178.681C189.564 179.957 185.922 181.439 182.65 183.578C173.947 189.237 166.951 196.891 161.292 205.615C156.951 212.302 151.21 216.109 143.782 217.693C133.947 219.792 124.297 218.763 114.77 215.965C114.05 215.759 109.112 214.154 108.001 213.455C115.779 214.175 122.425 215.018 127.425 214.566C137.733 213.619 139.935 211.994 142.301 209.977C122.96 212.611 106.684 210.615 102.013 208.187C110.182 207.014 128.206 207.261 137.013 205.368H136.951ZM188.926 208.619C195.14 205.183 201.662 202.302 207.835 198.784C214.378 195.06 219.748 197.508 224.645 201.829C226.724 203.64 228.349 206.068 230.53 208.887H188.391C188.576 208.784 188.761 208.702 188.926 208.599V208.619ZM243.102 202.014C243.39 202.241 243.678 202.467 243.966 202.693C251.744 208.146 255.201 215.656 254.234 225.286C252.917 216.767 248.452 209.792 243.678 203.002C243.493 202.673 243.287 202.344 243.102 202.014ZM232.835 203.949C237.773 205.944 241.559 210.739 241.559 210.739C240.736 207.549 239.419 206.335 238.143 203.702C244.069 207.055 247.444 212.117 248.287 218.537C245.324 216.747 242.608 214.422 239.481 213.352C235.18 211.891 234.09 208.702 232.835 203.928V203.949ZM65.8204 213.228H96.0052C104.174 217.714 112.754 220.821 121.849 222.261L109.873 225.471L126.746 229.977L143.618 225.471L134.955 223.146C137.095 223.105 139.256 223.002 141.437 222.775C146.704 222.24 151.684 220.553 156.334 217.817C157.98 216.85 159.976 216.191 161.869 216.088C167.445 215.759 172.835 214.854 178.062 213.228H218.432C209.008 217.385 202.321 225.142 200.407 235.43C200.14 236.829 199.975 238.207 199.872 239.565H39.4834V79.1971C40.8414 79.0942 42.2199 78.9296 43.6191 78.6621C53.907 76.7486 61.6847 70.0614 65.8204 60.6377V101.008C64.195 106.234 63.2896 111.625 62.9604 117.201C62.8575 119.073 62.1991 121.09 61.232 122.736C58.516 127.386 56.8288 132.365 56.2733 137.633C56.0881 139.505 55.9852 141.357 55.9235 143.209L53.8041 135.246L49.298 152.118L53.8041 168.99L56.8494 157.571C58.3103 166.542 61.3966 174.998 65.8204 183.064V213.249V213.228ZM70.162 48.5185C72.9809 50.6996 75.4088 52.325 77.2195 54.4032C81.5198 59.3002 83.9684 64.6706 80.2647 71.2137C76.7668 77.3864 73.8862 83.909 70.4294 90.1229C70.3266 90.3081 70.2443 90.4933 70.1414 90.6579V48.5185H70.162ZM69.3389 10.2474C83.9684 17.0374 93.783 28.2719 99.6472 42.9836C107.219 62.0369 107.404 80.8226 98.4332 99.4644C95.4291 105.699 92.3222 111.892 89.3798 118.168C85.5938 126.234 79.6268 138.024 76.6845 147.756C76.4376 138.353 81.0672 127.057 83.4745 118.476C80.4087 121.378 76.3141 129.814 73.6804 142.077C71.7874 150.883 72.0138 168.887 70.8615 177.076C68.4336 172.406 66.4377 156.13 69.0714 136.789C67.055 139.155 65.4295 141.357 64.483 151.665C64.0304 156.665 64.874 163.311 65.5941 171.089C64.874 169.978 63.2896 165.04 63.0839 164.319C60.2855 154.772 59.2568 145.122 61.3555 135.307C62.9398 127.88 66.7464 122.139 73.4335 117.797C82.1783 112.139 89.8119 105.143 95.4703 96.4397C97.5896 93.1681 99.0916 89.5056 100.367 85.7608C95.9847 91.6661 92.8571 98.4356 86.3757 102.612C86.7667 100.864 87.1576 99.0939 87.6103 97.0364C83.3922 100.987 79.4622 104.691 75.5528 108.353C78.8038 103.682 82.0754 99.0323 85.3469 94.3821C88.8037 89.4645 92.6514 84.732 95.6554 79.5469C101.087 70.2054 102.61 60.2673 98.1657 49.9588C98.392 52.6542 98.7212 55.3497 98.8036 58.0657C99.1328 67.2014 95.6349 75.0202 89.8325 81.9749C89.5444 82.3041 88.886 82.3452 88.3922 82.5098C88.3304 82.6127 88.2481 82.7156 88.1864 82.8184C88.2276 82.7567 88.2481 82.6745 88.2893 82.6127C91.3139 75.7815 94.0917 68.9298 94.2769 61.399C94.4209 55.823 93.1658 49.5062 90.9436 45.679C93.1658 54.2386 92.4045 66.0285 89.3387 74.2177C85.2029 85.267 77.9808 94.4232 70.2648 103.6C70.4706 102.551 70.4294 101.378 70.9027 100.452C73.3512 95.5755 75.8409 90.7196 78.4746 85.9254C83.0013 77.7362 86.4992 69.2384 87.816 59.9381C90.8407 38.6627 72.1372 18.416 50.2857 19.1773C43.6603 19.4037 38.2488 22.6547 32.5904 25.1855C30.7798 26.0085 28.9691 28.7863 28.8456 30.7615C28.6399 33.7039 27.2613 35.1031 25.1626 36.7491C18.9692 41.6256 18.0227 50.2469 22.7758 55.5966C25.4918 58.6624 27.9609 58.9505 31.4588 56.6254C39.792 51.0699 44.1952 49.4239 51.9523 55.7201C52.94 56.5225 54.2568 58.5184 55.1004 60.0821C54.2362 50.823 47.0964 45.4322 33.9279 49.2387C34.8949 48.0041 36.4793 46.893 37.3435 46.3169C42.4463 42.9425 49.8536 44.2387 55.2033 47.2016C57.302 48.3539 51.4174 42.0783 46.2734 41.3787C37.0966 40.1441 32.1583 43.2305 27.3642 51.8107C23.6605 47.8395 23.7428 43.6832 27.9197 40.3088C31.4999 37.4076 37.9813 34.9385 42.5903 35.4117C47.9812 35.9467 51.1704 37.9837 55.7177 42.0989C53.9482 37.7162 51.2939 33.4158 45.8619 32.3047C40.5121 30.7821 37.5698 31.5846 33.1048 32.8809C33.29 29.4858 35.7385 28.2719 38.4957 27.5517C43.2487 26.3172 47.7548 27.2636 51.9523 29.5887C66.1908 37.387 68.2278 55.9875 56.0469 66.5018C45.615 75.4934 24.2161 78.3741 12.2409 61.4813C0.841894 45.4115 3.82539 23.3543 21.8293 12.3256C37.1377 2.94301 53.2486 2.8401 69.3389 10.3091V10.2474ZM75.3265 40.9054C72.7134 39.6297 71.4994 38.3129 68.2896 37.4898C68.2896 37.4898 73.0837 41.2553 75.0796 46.214C70.306 44.9589 67.1373 43.8684 65.6558 39.568C64.5859 36.4405 62.2814 33.7245 60.4707 30.7615C66.8904 31.6052 71.9521 34.959 75.3059 40.9054H75.3265ZM53.7424 24.8152C63.3719 23.8481 70.8821 27.2842 76.3347 35.0825C76.5611 35.3706 76.7874 35.6586 77.0137 35.9466C76.6845 35.7615 76.3553 35.5557 76.0261 35.3705C69.2155 30.5969 62.2608 26.1526 53.7424 24.8152Z" fill="black"/>
<path d="M12.9817 34.3417C12.0557 37.1401 11.3562 40.103 13.3932 43.8478C15.1833 39.7121 16.4384 36.3582 18.0433 33.1484C25.4301 18.3132 43.8249 10.1651 60.3061 14.2391C70.0385 16.6465 81.7667 25.5353 86.4786 31.3788C80.491 21.811 68.6599 14.1569 59.195 11.626C47.796 8.58081 36.9937 10.7412 27.035 16.6671C20.1009 20.8028 15.4713 26.8727 12.9817 34.3623V34.3417Z" fill="black"/>
<path d="M26.068 64.3414C24.0104 63.7447 21.9322 63.2097 19.3602 62.5307C24.1133 69.1149 38.5987 70.5553 46.4586 65.0615C47.9607 64.0122 49.4627 62.9628 50.9647 61.8928C50.9647 61.8928 47.1994 62.3249 45.6562 63.0451C39.2571 66.008 32.7757 66.2755 26.068 64.3414Z" fill="black"/>
<path d="M264.81 218.722C268.884 235.203 260.756 253.598 245.9 260.985C242.691 262.59 239.337 263.845 235.201 265.635C238.925 267.672 241.909 266.993 244.707 266.046C252.197 263.557 258.266 258.907 262.402 251.993C268.328 242.034 270.489 231.253 267.443 219.833C264.912 210.348 257.258 198.517 247.69 192.529C253.513 197.241 262.402 208.969 264.83 218.701L264.81 218.722Z" fill="black"/>
<path d="M215.983 233.372C216.703 231.829 217.135 228.063 217.135 228.063C216.086 229.566 215.037 231.067 213.967 232.57C208.493 240.43 209.913 254.915 216.497 259.668C215.798 257.096 215.263 255.018 214.687 252.96C212.753 246.273 213 239.771 215.983 233.372Z" fill="black"/>
<path d="M53.7836 217.652L58.3103 200.78L53.7836 183.908L49.2775 200.78L53.7836 217.652Z" fill="black"/>
<path d="M53.7836 86.5015L49.2775 103.374L53.7836 120.246L58.3103 103.374L53.7836 86.5015Z" fill="black"/>
<path d="M192.341 225.45L175.449 220.944L158.576 225.45L175.449 229.956L192.341 225.45Z" fill="black"/>
<path d="M78.0425 229.956L94.9147 225.45L78.0425 220.944L61.1703 225.45L78.0425 229.956Z" fill="black"/>
</svg>
