<svg width="795" height="1153" viewBox="0 0 795 1153" fill="none" xmlns="http://www.w3.org/2000/svg">
<path d="M691.173 1.71094H103.774C47.4437 1.71094 1.7793 47.3757 1.7793 103.706V1049.06C1.7793 1105.39 47.4437 1151.05 103.774 1151.05H691.173C747.503 1151.05 793.168 1105.39 793.168 1049.06V103.706C793.168 47.3757 747.503 1.71094 691.173 1.71094Z" stroke="#2D2041" stroke-width="3" stroke-linecap="round" stroke-linejoin="round"/>
<path d="M48.8438 876.191V772.954" stroke="#2D2041" stroke-width="3" stroke-linecap="round" stroke-linejoin="round"/>
<path d="M48.8438 379.81V276.642" stroke="#2D2041" stroke-width="3" stroke-linecap="round" stroke-linejoin="round"/>
<path d="M745.967 379.81V276.642" stroke="#2D2041" stroke-width="3" stroke-linecap="round" stroke-linejoin="round"/>
<path d="M745.967 710.776V607.539" stroke="#2D2041" stroke-width="3" stroke-linecap="round" stroke-linejoin="round"/>
<path d="M48.8438 938.437V1055.34C48.8438 1068.79 51.6041 1081.63 56.6417 1093.22C71.3405 1127.24 105.224 1151.05 144.627 1151.05H650.252C689.656 1151.05 723.47 1127.24 738.169 1093.22C743.206 1081.63 745.967 1068.79 745.967 1055.34V938.437" stroke="#2D2041" stroke-width="3" stroke-linecap="round" stroke-linejoin="round"/>
<path d="M745.967 876.191V772.954" stroke="#2D2041" stroke-width="3" stroke-linecap="round" stroke-linejoin="round"/>
<path d="M745.967 545.293V442.056" stroke="#2D2041" stroke-width="3" stroke-linecap="round" stroke-linejoin="round"/>
<path d="M745.967 214.396V97.4952C745.967 84.0385 743.206 71.2028 738.169 59.6093C723.47 25.588 689.656 1.71094 650.252 1.71094H144.627C105.224 1.71094 71.3405 25.588 56.6417 59.6093C51.6041 71.2028 48.8438 84.0385 48.8438 97.4952V214.396" stroke="#2D2041" stroke-width="3" stroke-linecap="round" stroke-linejoin="round"/>
<path d="M48.8438 710.776V607.539" stroke="#2D2041" stroke-width="3" stroke-linecap="round" stroke-linejoin="round"/>
<path d="M48.8438 545.293V442.056" stroke="#2D2041" stroke-width="3" stroke-linecap="round" stroke-linejoin="round"/>
<path d="M504.99 49.741H428.598" stroke="#2D2041" stroke-width="3" stroke-linecap="round" stroke-linejoin="round"/>
<path d="M504.99 1103.02H428.598" stroke="#2D2041" stroke-width="3" stroke-linecap="round" stroke-linejoin="round"/>
<path d="M227.576 49.741H99.4269C45.4623 49.741 1.71094 93.4926 1.71094 147.389V1005.38C1.71094 1059.34 45.4623 1103.02 99.4269 1103.02H227.576" stroke="#2D2041" stroke-width="3" stroke-linecap="round" stroke-linejoin="round"/>
<path d="M366.283 1103.02H289.891" stroke="#2D2041" stroke-width="3" stroke-linecap="round" stroke-linejoin="round"/>
<path d="M567.303 1103.02H695.451C749.347 1103.02 793.098 1059.34 793.098 1005.38V147.389C793.098 93.4926 749.347 49.741 695.451 49.741H567.303" stroke="#2D2041" stroke-width="3" stroke-linecap="round" stroke-linejoin="round"/>
<path d="M366.283 49.741H289.891" stroke="#2D2041" stroke-width="3" stroke-linecap="round" stroke-linejoin="round"/>
<path d="M366.283 49.741H289.891" stroke="#2D2041" stroke-width="3" stroke-linecap="round" stroke-linejoin="round"/>
<path d="M567.303 49.741H610.709C657.497 49.741 695.451 87.6958 695.451 134.484V1018.28C695.451 1065.14 657.497 1103.02 610.709 1103.02H567.303" stroke="#2D2041" stroke-width="3" stroke-linecap="round" stroke-linejoin="round"/>
<path d="M366.283 1103.02H289.891" stroke="#2D2041" stroke-width="3" stroke-linecap="round" stroke-linejoin="round"/>
<path d="M227.576 1103.02H184.17C137.382 1103.02 99.4277 1065.14 99.4277 1018.28V134.484C99.4277 87.6958 137.382 49.741 184.17 49.741H227.576" stroke="#2D2041" stroke-width="3" stroke-linecap="round" stroke-linejoin="round"/>
<path d="M504.99 1103.02H428.598" stroke="#2D2041" stroke-width="3" stroke-linecap="round" stroke-linejoin="round"/>
<path d="M504.99 49.741H428.598" stroke="#2D2041" stroke-width="3" stroke-linecap="round" stroke-linejoin="round"/>
<path d="M48.8438 876.191V772.954" stroke="#2D2041" stroke-width="3" stroke-linecap="round" stroke-linejoin="round"/>
<path d="M48.8438 379.81V276.642" stroke="#2D2041" stroke-width="3" stroke-linecap="round" stroke-linejoin="round"/>
<path d="M745.967 379.81V276.642" stroke="#2D2041" stroke-width="3" stroke-linecap="round" stroke-linejoin="round"/>
<path d="M745.967 710.776V607.539" stroke="#2D2041" stroke-width="3" stroke-linecap="round" stroke-linejoin="round"/>
<path d="M48.8438 938.437V967.903C48.8438 1005.38 72.4448 1037.33 105.5 1049.75C115.092 1053.34 125.443 1055.34 136.277 1055.34H658.533C669.436 1055.34 679.857 1053.34 689.449 1049.68C722.504 1037.26 745.967 1005.31 745.967 967.903V938.437" stroke="#2D2041" stroke-width="3" stroke-linecap="round" stroke-linejoin="round"/>
<path d="M745.967 876.191V772.954" stroke="#2D2041" stroke-width="3" stroke-linecap="round" stroke-linejoin="round"/>
<path d="M745.967 545.293V442.056" stroke="#2D2041" stroke-width="3" stroke-linecap="round" stroke-linejoin="round"/>
<path d="M745.966 214.396V184.86C745.966 147.527 722.503 115.644 689.517 103.154C679.925 99.4964 669.505 97.4951 658.601 97.4951H136.346C125.512 97.4951 115.16 99.4964 105.568 103.085C72.5129 115.506 48.9121 147.458 48.9121 184.86V214.396" stroke="#2D2041" stroke-width="3" stroke-linecap="round" stroke-linejoin="round"/>
<path d="M48.8438 710.776V607.539" stroke="#2D2041" stroke-width="3" stroke-linecap="round" stroke-linejoin="round"/>
<path d="M48.8438 545.293V442.056" stroke="#2D2041" stroke-width="3" stroke-linecap="round" stroke-linejoin="round"/>
<path d="M80.0348 907.313C80.0348 906.002 74.859 904.829 66.9921 904.07C59.1251 903.38 52.8454 897.1 52.1553 889.233C51.4652 881.297 50.2921 876.19 48.9119 876.19C47.5318 876.19 46.4276 881.366 45.6685 889.233C44.9784 897.1 38.6987 903.38 30.8318 904.07C22.8958 904.76 17.7891 905.933 17.7891 907.313C17.7891 908.694 22.9648 909.798 30.8318 910.557C38.6987 911.247 44.9784 917.527 45.6685 925.394C46.3586 933.33 47.5318 938.436 48.9119 938.436C50.2921 938.436 51.3962 933.261 52.1553 925.394C52.8454 917.527 59.1251 911.247 66.9921 910.557C74.9281 909.867 80.0348 908.694 80.0348 907.313Z" stroke="#2D2041" stroke-width="3" stroke-linecap="round" stroke-linejoin="round"/>
<path d="M80.0348 741.83C80.0348 740.519 74.859 739.346 66.9921 738.587C59.1251 737.897 52.8454 731.617 52.1553 723.75C51.4652 715.814 50.2921 710.707 48.9119 710.707C47.5318 710.707 46.4276 715.883 45.6685 723.75C44.9784 731.617 38.6987 737.897 30.8318 738.587C22.8958 739.277 17.7891 740.45 17.7891 741.83C17.7891 743.21 22.9648 744.315 30.8318 745.074C38.6987 745.764 44.9784 752.044 45.6685 759.911C46.3586 767.847 47.5318 772.953 48.9119 772.953C50.2921 772.953 51.3962 767.778 52.1553 759.911C52.8454 752.044 59.1251 745.764 66.9921 745.074C74.9281 744.384 80.0348 743.21 80.0348 741.83Z" stroke="#2D2041" stroke-width="3" stroke-linecap="round" stroke-linejoin="round"/>
<path d="M80.0348 576.416C80.0348 575.105 74.859 573.932 66.9921 573.173C59.1251 572.483 52.8454 566.203 52.1553 558.336C51.4652 550.4 50.2921 545.293 48.9119 545.293C47.5318 545.293 46.4276 550.469 45.6685 558.336C44.9784 566.203 38.6987 572.483 30.8318 573.173C22.8958 573.863 17.7891 575.036 17.7891 576.416C17.7891 577.796 22.9648 578.901 30.8318 579.66C38.6987 580.35 44.9784 586.63 45.6685 594.497C46.3586 602.433 47.5318 607.539 48.9119 607.539C50.2921 607.539 51.3962 602.364 52.1553 594.497C52.8454 586.63 59.1251 580.35 66.9921 579.66C74.9281 578.97 80.0348 577.796 80.0348 576.416Z" stroke="#2D2041" stroke-width="3" stroke-linecap="round" stroke-linejoin="round"/>
<path d="M80.0348 410.933C80.0348 409.622 74.859 408.449 66.9921 407.69C59.1251 407 52.8454 400.72 52.1553 392.853C51.4652 384.917 50.2921 379.81 48.9119 379.81C47.5318 379.81 46.4276 384.986 45.6685 392.853C44.9784 400.72 38.6987 407 30.8318 407.69C22.8958 408.38 17.7891 409.553 17.7891 410.933C17.7891 412.313 22.9648 413.417 30.8318 414.177C38.6987 414.867 44.9784 421.146 45.6685 429.013C46.3586 436.949 47.5318 442.056 48.9119 442.056C50.2921 442.056 51.3962 436.88 52.1553 429.013C52.8454 421.146 59.1251 414.867 66.9921 414.177C74.9281 413.486 80.0348 412.313 80.0348 410.933Z" stroke="#2D2041" stroke-width="3" stroke-linecap="round" stroke-linejoin="round"/>
<path d="M80.0348 245.519C80.0348 244.208 74.859 243.035 66.9921 242.276C59.1251 241.586 52.8454 235.306 52.1553 227.439C51.4652 219.503 50.2921 214.396 48.9119 214.396C47.5318 214.396 46.4276 219.572 45.6685 227.439C44.9784 235.306 38.6987 241.586 30.8318 242.276C22.8958 242.966 17.7891 244.139 17.7891 245.519C17.7891 246.899 22.9648 248.003 30.8318 248.762C38.6987 249.453 44.9784 255.732 45.6685 263.599C46.3586 271.535 47.5318 276.642 48.9119 276.642C50.2921 276.642 51.3962 271.466 52.1553 263.599C52.8454 255.732 59.1251 249.453 66.9921 248.762C74.9281 248.072 80.0348 246.899 80.0348 245.519Z" stroke="#2D2041" stroke-width="3" stroke-linecap="round" stroke-linejoin="round"/>
<path d="M777.089 907.313C777.089 906.002 771.914 904.829 764.047 904.07C756.18 903.38 749.9 897.1 749.21 889.233C748.52 881.297 747.347 876.19 745.967 876.19C744.586 876.19 743.482 881.366 742.723 889.233C742.033 897.1 735.753 903.38 727.886 904.07C719.95 904.76 714.844 905.933 714.844 907.313C714.844 908.694 720.019 909.798 727.886 910.557C735.753 911.247 742.033 917.527 742.723 925.394C743.413 933.33 744.586 938.436 745.967 938.436C747.347 938.436 748.451 933.261 749.21 925.394C749.9 917.527 756.18 911.247 764.047 910.557C771.983 909.867 777.089 908.694 777.089 907.313Z" stroke="#2D2041" stroke-width="3" stroke-linecap="round" stroke-linejoin="round"/>
<path d="M777.089 741.83C777.089 740.519 771.914 739.346 764.047 738.587C756.18 737.897 749.9 731.617 749.21 723.75C748.52 715.814 747.347 710.707 745.967 710.707C744.586 710.707 743.482 715.883 742.723 723.75C742.033 731.617 735.753 737.897 727.886 738.587C719.95 739.277 714.844 740.45 714.844 741.83C714.844 743.21 720.019 744.315 727.886 745.074C735.753 745.764 742.033 752.044 742.723 759.911C743.413 767.847 744.586 772.953 745.967 772.953C747.347 772.953 748.451 767.778 749.21 759.911C749.9 752.044 756.18 745.764 764.047 745.074C771.983 744.384 777.089 743.21 777.089 741.83Z" stroke="#2D2041" stroke-width="3" stroke-linecap="round" stroke-linejoin="round"/>
<path d="M777.089 576.416C777.089 575.105 771.914 573.932 764.047 573.173C756.18 572.483 749.9 566.203 749.21 558.336C748.52 550.4 747.347 545.293 745.967 545.293C744.586 545.293 743.482 550.469 742.723 558.336C742.033 566.203 735.753 572.483 727.886 573.173C719.95 573.863 714.844 575.036 714.844 576.416C714.844 577.796 720.019 578.901 727.886 579.66C735.753 580.35 742.033 586.63 742.723 594.497C743.413 602.433 744.586 607.539 745.967 607.539C747.347 607.539 748.451 602.364 749.21 594.497C749.9 586.63 756.18 580.35 764.047 579.66C771.983 578.97 777.089 577.796 777.089 576.416Z" stroke="#2D2041" stroke-width="3" stroke-linecap="round" stroke-linejoin="round"/>
<path d="M777.089 410.933C777.089 409.622 771.914 408.449 764.047 407.69C756.18 407 749.9 400.72 749.21 392.853C748.52 384.917 747.347 379.81 745.967 379.81C744.586 379.81 743.482 384.986 742.723 392.853C742.033 400.72 735.753 407 727.886 407.69C719.95 408.38 714.844 409.553 714.844 410.933C714.844 412.313 720.019 413.417 727.886 414.177C735.753 414.867 742.033 421.146 742.723 429.013C743.413 436.949 744.586 442.056 745.967 442.056C747.347 442.056 748.451 436.88 749.21 429.013C749.9 421.146 756.18 414.867 764.047 414.177C771.983 413.486 777.089 412.313 777.089 410.933Z" stroke="#2D2041" stroke-width="3" stroke-linecap="round" stroke-linejoin="round"/>
<path d="M777.089 245.519C777.089 244.208 771.914 243.035 764.047 242.276C756.18 241.586 749.9 235.306 749.21 227.439C748.52 219.503 747.347 214.396 745.967 214.396C744.586 214.396 743.482 219.572 742.723 227.439C742.033 235.306 735.753 241.586 727.886 242.276C719.95 242.966 714.844 244.139 714.844 245.519C714.844 246.899 720.019 248.003 727.886 248.762C735.753 249.453 742.033 255.732 742.723 263.599C743.413 271.535 744.586 276.642 745.967 276.642C747.347 276.642 748.451 271.466 749.21 263.599C749.9 255.732 756.18 249.453 764.047 248.762C771.983 248.072 777.089 246.899 777.089 245.519Z" stroke="#2D2041" stroke-width="3" stroke-linecap="round" stroke-linejoin="round"/>
<path d="M289.89 49.7411C289.89 48.4299 284.714 47.2568 276.778 46.4977C268.911 45.8076 262.631 39.5278 261.941 31.6608C261.251 23.7248 260.078 18.5491 258.698 18.5491C257.317 18.5491 256.213 23.7248 255.454 31.6608C254.764 39.5278 248.484 45.8076 240.617 46.4977C232.681 47.1878 227.506 48.3609 227.506 49.7411C227.506 51.1213 232.681 52.2254 240.617 52.9845C248.484 53.6746 254.764 59.9544 255.454 67.8214C256.144 75.7574 257.317 80.9331 258.698 80.9331C260.078 80.9331 261.182 75.7574 261.941 67.8214C262.631 59.9544 268.911 53.6746 276.778 52.9845C284.714 52.2944 289.89 51.1213 289.89 49.7411Z" stroke="#2D2041" stroke-width="3" stroke-linecap="round" stroke-linejoin="round"/>
<path d="M428.596 49.7411C428.596 48.4299 423.421 47.2568 415.485 46.4977C407.618 45.8076 401.338 39.5278 400.648 31.6608C399.958 23.7248 398.785 18.5491 397.405 18.5491C396.024 18.5491 394.92 23.7248 394.161 31.6608C393.471 39.5278 387.191 45.8076 379.324 46.4977C371.388 47.1878 366.213 48.3609 366.213 49.7411C366.213 51.1213 371.388 52.2254 379.324 52.9845C387.191 53.6746 393.471 59.9544 394.161 67.8214C394.851 75.7574 396.024 80.9331 397.405 80.9331C398.785 80.9331 399.889 75.7574 400.648 67.8214C401.338 59.9544 407.618 53.6746 415.485 52.9845C423.421 52.2944 428.596 51.1213 428.596 49.7411Z" stroke="#2D2041" stroke-width="3" stroke-linecap="round" stroke-linejoin="round"/>
<path d="M567.303 49.7411C567.303 48.4299 562.128 47.2568 554.192 46.4977C546.325 45.8076 540.045 39.5278 539.355 31.6608C538.665 23.7248 537.492 18.5491 536.112 18.5491C534.731 18.5491 533.627 23.7248 532.868 31.6608C532.178 39.5278 525.898 45.8076 518.031 46.4977C510.096 47.1878 504.92 48.3609 504.92 49.7411C504.92 51.1213 510.096 52.2254 518.031 52.9845C525.898 53.6746 532.178 59.9544 532.868 67.8214C533.558 75.7574 534.731 80.9331 536.112 80.9331C537.492 80.9331 538.596 75.7574 539.355 67.8214C540.045 59.9544 546.325 53.6746 554.192 52.9845C562.128 52.2944 567.303 51.1213 567.303 49.7411Z" stroke="#2D2041" stroke-width="3" stroke-linecap="round" stroke-linejoin="round"/>
<path d="M289.89 1103.02C289.89 1101.71 284.714 1100.54 276.778 1099.78C268.911 1099.09 262.631 1092.81 261.941 1084.94C261.251 1077.01 260.078 1071.83 258.698 1071.83C257.317 1071.83 256.213 1077.01 255.454 1084.94C254.764 1092.81 248.484 1099.09 240.617 1099.78C232.681 1100.47 227.506 1101.64 227.506 1103.02C227.506 1104.4 232.681 1105.51 240.617 1106.27C248.484 1106.96 254.764 1113.24 255.454 1121.1C256.144 1129.04 257.317 1134.21 258.698 1134.21C260.078 1134.21 261.182 1129.04 261.941 1121.1C262.631 1113.24 268.911 1106.96 276.778 1106.27C284.714 1105.58 289.89 1104.4 289.89 1103.02Z" stroke="#2D2041" stroke-width="3" stroke-linecap="round" stroke-linejoin="round"/>
<path d="M428.596 1103.02C428.596 1101.71 423.421 1100.54 415.485 1099.78C407.618 1099.09 401.338 1092.81 400.648 1084.94C399.958 1077.01 398.785 1071.83 397.405 1071.83C396.024 1071.83 394.92 1077.01 394.161 1084.94C393.471 1092.81 387.191 1099.09 379.324 1099.78C371.388 1100.47 366.213 1101.64 366.213 1103.02C366.213 1104.4 371.388 1105.51 379.324 1106.27C387.191 1106.96 393.471 1113.24 394.161 1121.1C394.851 1129.04 396.024 1134.21 397.405 1134.21C398.785 1134.21 399.889 1129.04 400.648 1121.1C401.338 1113.24 407.618 1106.96 415.485 1106.27C423.421 1105.58 428.596 1104.4 428.596 1103.02Z" stroke="#2D2041" stroke-width="3" stroke-linecap="round" stroke-linejoin="round"/>
<path d="M567.303 1103.02C567.303 1101.71 562.128 1100.54 554.192 1099.78C546.325 1099.09 540.045 1092.81 539.355 1084.94C538.665 1077.01 537.492 1071.83 536.112 1071.83C534.731 1071.83 533.627 1077.01 532.868 1084.94C532.178 1092.81 525.898 1099.09 518.031 1099.78C510.096 1100.47 504.92 1101.64 504.92 1103.02C504.92 1104.4 510.096 1105.51 518.031 1106.27C525.898 1106.96 532.178 1113.24 532.868 1121.1C533.558 1129.04 534.731 1134.21 536.112 1134.21C537.492 1134.21 538.596 1129.04 539.355 1121.1C540.045 1113.24 546.325 1106.96 554.192 1106.27C562.128 1105.58 567.303 1104.4 567.303 1103.02Z" stroke="#2D2041" stroke-width="3" stroke-linecap="round" stroke-linejoin="round"/>
<path d="M105.499 1049.75L56.6406 1093.22" stroke="#2D2041" stroke-width="3" stroke-linecap="round" stroke-linejoin="round"/>
<path d="M689.449 1049.68L738.169 1093.22" stroke="#2D2041" stroke-width="3" stroke-linecap="round" stroke-linejoin="round"/>
<path d="M689.449 103.154L738.169 59.6094" stroke="#2D2041" stroke-width="3" stroke-linecap="round" stroke-linejoin="round"/>
<path d="M105.499 103.085L56.6406 59.6094" stroke="#2D2041" stroke-width="3" stroke-linecap="round" stroke-linejoin="round"/>
</svg>
