<svg width="894" height="1282" viewBox="0 0 894 1282" fill="none" xmlns="http://www.w3.org/2000/svg">
<path d="M91.8933 119.529C104.407 119.529 114.552 109.385 114.552 96.8705C114.552 84.3562 104.407 74.2114 91.8933 74.2114C79.3791 74.2114 69.2344 84.3562 69.2344 96.8705C69.2344 109.385 79.3791 119.529 91.8933 119.529Z" stroke="#222952" stroke-width="3" stroke-linecap="round" stroke-linejoin="round"/>
<path d="M71.6108 107.049C64.4046 116.409 60.8386 123.987 63.0673 126.216C65.2961 128.445 72.9481 124.879 82.4574 117.524C87.4349 113.661 92.9325 108.832 98.5043 103.334C103.928 97.9107 108.682 92.4874 112.471 87.5842C119.975 77.9262 123.689 70.1998 121.386 67.8968C119.083 65.5937 111.431 69.3084 101.922 76.6633" stroke="#222952" stroke-width="3" stroke-linecap="round" stroke-linejoin="round"/>
<path d="M798.551 119.529C811.066 119.529 821.21 109.385 821.21 96.8705C821.21 84.3562 811.066 74.2114 798.551 74.2114C786.037 74.2114 775.893 84.3562 775.893 96.8705C775.893 109.385 786.037 119.529 798.551 119.529Z" stroke="#222952" stroke-width="3" stroke-linecap="round" stroke-linejoin="round"/>
<path d="M818.76 107.049C825.966 116.409 829.532 123.987 827.303 126.216C825.074 128.445 817.422 124.879 807.913 117.524C802.935 113.661 797.438 108.832 791.866 103.334C786.443 97.9107 781.688 92.4874 777.899 87.5842C770.396 77.9262 766.681 70.1998 768.984 67.8968C771.287 65.5937 778.939 69.3084 788.449 76.6633" stroke="#222952" stroke-width="3" stroke-linecap="round" stroke-linejoin="round"/>
<path d="M91.8933 1208.72C104.407 1208.72 114.552 1198.58 114.552 1186.06C114.552 1173.55 104.407 1163.4 91.8933 1163.4C79.3791 1163.4 69.2344 1173.55 69.2344 1186.06C69.2344 1198.58 79.3791 1208.72 91.8933 1208.72Z" stroke="#222952" stroke-width="3" stroke-linecap="round" stroke-linejoin="round"/>
<path d="M71.6108 1175.89C64.4046 1166.52 60.8386 1158.95 63.0673 1156.72C65.2961 1154.49 72.9481 1158.06 82.4574 1165.41C87.4349 1169.27 92.9325 1174.1 98.5043 1179.6C104.076 1185.1 108.682 1190.45 112.471 1195.35C119.975 1205.01 123.689 1212.73 121.386 1215.04C119.083 1217.34 111.431 1213.63 101.922 1206.27" stroke="#222952" stroke-width="3" stroke-linecap="round" stroke-linejoin="round"/>
<path d="M798.551 1208.72C811.066 1208.72 821.21 1198.58 821.21 1186.06C821.21 1173.55 811.066 1163.4 798.551 1163.4C786.037 1163.4 775.893 1173.55 775.893 1186.06C775.893 1198.58 786.037 1208.72 798.551 1208.72Z" stroke="#222952" stroke-width="3" stroke-linecap="round" stroke-linejoin="round"/>
<path d="M818.76 1175.89C825.966 1166.52 829.532 1158.95 827.303 1156.72C825.074 1154.49 817.422 1158.06 807.913 1165.41C802.935 1169.27 797.438 1174.1 791.866 1179.6C786.294 1185.1 781.688 1190.45 777.899 1195.35C770.396 1205.01 766.681 1212.73 768.984 1215.04C771.287 1217.34 778.939 1213.63 788.449 1206.27" stroke="#222952" stroke-width="3" stroke-linecap="round" stroke-linejoin="round"/>
<path d="M873.143 625.235V560.378" stroke="#222952" stroke-width="3" stroke-linecap="round" stroke-linejoin="round"/>
<path d="M534.669 1259.84H467.658" stroke="#222952" stroke-width="3" stroke-linecap="round" stroke-linejoin="round"/>
<path d="M558.889 1259.84H763.264C823.961 1259.84 873.142 1210.65 873.142 1150.03V747.519" stroke="#222952" stroke-width="3" stroke-linecap="round" stroke-linejoin="round"/>
<path d="M21.168 747.519V1150.03C21.168 1210.65 70.3489 1259.84 130.971 1259.84H330.889" stroke="#222952" stroke-width="3" stroke-linecap="round" stroke-linejoin="round"/>
<path d="M426.65 1259.84H355.033" stroke="#222952" stroke-width="3" stroke-linecap="round" stroke-linejoin="round"/>
<path d="M873.143 728.352V663.495" stroke="#222952" stroke-width="3" stroke-linecap="round" stroke-linejoin="round"/>
<path d="M21.168 625.235V560.378C26.4427 560.378 30.7516 556.143 30.7516 550.868C30.7516 545.594 26.4427 541.285 21.168 541.285V132.382C21.168 71.6857 70.3489 22.5044 130.971 22.5044H330.889" stroke="#222952" stroke-width="3" stroke-linecap="round" stroke-linejoin="round"/>
<path d="M534.669 22.5044H467.658" stroke="#222952" stroke-width="3" stroke-linecap="round" stroke-linejoin="round"/>
<path d="M873.142 541.285V132.382C873.142 71.6857 823.961 22.5044 763.264 22.5044H558.889" stroke="#222952" stroke-width="3" stroke-linecap="round" stroke-linejoin="round"/>
<path d="M426.65 22.5044H355.033" stroke="#222952" stroke-width="3" stroke-linecap="round" stroke-linejoin="round"/>
<path d="M21.168 728.352V663.495" stroke="#222952" stroke-width="3" stroke-linecap="round" stroke-linejoin="round"/>
<path d="M837.111 162.545V1119.87C780.055 1119.87 733.771 1166.15 733.771 1223.21H160.539C160.539 1166.15 114.255 1119.87 57.125 1119.87V162.545C114.255 162.545 160.539 116.261 160.539 59.2046H733.771C733.771 116.261 780.055 162.545 837.111 162.545Z" stroke="#222952" stroke-width="3" stroke-linecap="round" stroke-linejoin="round"/>
<path d="M40.3344 644.402C40.3344 633.852 31.7909 625.235 21.1672 625.235C10.5435 625.235 2 633.778 2 644.402C2 655.026 10.5435 663.569 21.1672 663.569C31.7909 663.569 40.3344 655.026 40.3344 644.402Z" stroke="#222952" stroke-width="3" stroke-linecap="round" stroke-linejoin="round"/>
<path d="M21.1676 560.378C15.8929 560.378 11.584 556.143 11.584 550.868C11.584 545.593 15.8929 541.285 21.1676 541.285" stroke="#222952" stroke-width="3" stroke-linecap="round" stroke-linejoin="round"/>
<path d="M30.7512 737.936C30.7512 732.661 26.4423 728.352 21.1676 728.352C15.8929 728.352 11.584 732.661 11.584 737.936C11.584 743.21 15.8929 747.519 21.1676 747.519C26.4423 747.519 30.7512 743.21 30.7512 737.936Z" stroke="#222952" stroke-width="3" stroke-linecap="round" stroke-linejoin="round"/>
<path d="M873.143 1150.03V747.519" stroke="#222952" stroke-width="3" stroke-linecap="round" stroke-linejoin="round"/>
<path d="M873.143 625.234V560.378C878.417 560.378 882.726 556.143 882.726 550.868C882.726 545.593 878.417 541.285 873.143 541.285V132.382" stroke="#222952" stroke-width="3" stroke-linecap="round" stroke-linejoin="round"/>
<path d="M873.143 728.352V663.495" stroke="#222952" stroke-width="3" stroke-linecap="round" stroke-linejoin="round"/>
<path d="M892.309 644.402C892.309 633.852 883.765 625.235 873.142 625.235C862.518 625.235 853.975 633.778 853.975 644.402C853.975 655.026 862.518 663.569 873.142 663.569C883.765 663.569 892.309 655.026 892.309 644.402Z" stroke="#222952" stroke-width="3" stroke-linecap="round" stroke-linejoin="round"/>
<path d="M873.142 560.378C867.868 560.378 863.559 556.143 863.559 550.868C863.559 545.593 867.868 541.285 873.142 541.285" stroke="#222952" stroke-width="3" stroke-linecap="round" stroke-linejoin="round"/>
<path d="M873.142 747.519C878.435 747.519 882.726 743.228 882.726 737.936C882.726 732.643 878.435 728.352 873.142 728.352C867.849 728.352 863.559 732.643 863.559 737.936C863.559 743.228 867.849 747.519 873.142 747.519Z" stroke="#222952" stroke-width="3" stroke-linecap="round" stroke-linejoin="round"/>
<path d="M467.657 1259.84C467.657 1248.47 458.445 1239.33 447.153 1239.33C435.861 1239.33 426.648 1248.54 426.648 1259.84C426.648 1271.13 435.861 1280.34 447.153 1280.34C458.445 1280.34 467.657 1271.13 467.657 1259.84Z" stroke="#222952" stroke-width="3" stroke-linecap="round" stroke-linejoin="round"/>
<path d="M355.106 1259.84C355.106 1253.15 349.682 1247.73 342.996 1247.73C336.31 1247.73 330.887 1253.15 330.887 1259.84C330.887 1266.52 336.31 1271.95 342.996 1271.95C349.682 1271.95 355.106 1266.52 355.106 1259.84Z" stroke="#222952" stroke-width="3" stroke-linecap="round" stroke-linejoin="round"/>
<path d="M558.887 1259.84C558.887 1253.15 553.464 1247.73 546.778 1247.73C540.091 1247.73 534.668 1253.15 534.668 1259.84C534.668 1266.52 540.091 1271.95 546.778 1271.95C553.464 1271.95 558.887 1266.52 558.887 1259.84Z" stroke="#222952" stroke-width="3" stroke-linecap="round" stroke-linejoin="round"/>
<path d="M467.657 22.5045C467.657 11.1379 458.445 2 447.153 2C435.861 2 426.648 11.2122 426.648 22.5045C426.648 33.7969 435.861 43.0092 447.153 43.0092C458.445 43.0092 467.657 33.7969 467.657 22.5045Z" stroke="#222952" stroke-width="3" stroke-linecap="round" stroke-linejoin="round"/>
<path d="M355.106 22.5043C355.106 15.818 349.682 10.3948 342.996 10.3948C336.31 10.3948 330.887 15.818 330.887 22.5043C330.887 29.1905 336.31 34.6139 342.996 34.6139C349.682 34.6139 355.106 29.1905 355.106 22.5043Z" stroke="#222952" stroke-width="3" stroke-linecap="round" stroke-linejoin="round"/>
<path d="M558.887 22.5043C558.887 15.818 553.464 10.3948 546.778 10.3948C540.091 10.3948 534.668 15.818 534.668 22.5043C534.668 29.1905 540.091 34.6139 546.778 34.6139C553.464 34.6139 558.887 29.1905 558.887 22.5043Z" stroke="#222952" stroke-width="3" stroke-linecap="round" stroke-linejoin="round"/>
<path d="M447.152 1132.8C447.152 1153.75 430.14 1170.76 409.189 1170.76C430.14 1170.76 447.152 1187.77 447.152 1208.72C447.152 1187.77 464.165 1170.76 485.115 1170.76C464.165 1170.76 447.152 1153.75 447.152 1132.8Z" stroke="#222952" stroke-width="3" stroke-linecap="round" stroke-linejoin="round"/>
<path d="M365.283 1152.71C365.283 1162.66 357.186 1170.83 347.156 1170.83C357.186 1170.83 365.283 1178.93 365.283 1188.96C365.283 1179.01 373.381 1170.83 383.41 1170.83C373.381 1170.83 365.283 1162.74 365.283 1152.71Z" stroke="#222952" stroke-width="3" stroke-linecap="round" stroke-linejoin="round"/>
<path d="M528.725 1152.71C528.725 1162.66 520.627 1170.83 510.598 1170.83C520.627 1170.83 528.725 1178.93 528.725 1188.96C528.725 1179.01 536.823 1170.83 546.852 1170.83C536.823 1170.83 528.725 1162.74 528.725 1152.71Z" stroke="#222952" stroke-width="3" stroke-linecap="round" stroke-linejoin="round"/>
<path d="M365.283 94.0474C365.283 104.002 357.186 112.175 347.156 112.175C357.186 112.175 365.283 120.272 365.283 130.302C365.283 120.347 373.381 112.175 383.41 112.175C373.381 112.175 365.283 104.077 365.283 94.0474Z" stroke="#222952" stroke-width="3" stroke-linecap="round" stroke-linejoin="round"/>
<path d="M528.725 94.0474C528.725 104.002 520.627 112.175 510.598 112.175C520.627 112.175 528.725 120.272 528.725 130.302C528.725 120.347 536.823 112.175 546.852 112.175C536.823 112.175 528.725 104.077 528.725 94.0474Z" stroke="#222952" stroke-width="3" stroke-linecap="round" stroke-linejoin="round"/>
</svg>
