<?xml version="1.0" encoding="UTF-8"?>
<svg id="Capa_2" data-name="Capa 2" xmlns="http://www.w3.org/2000/svg" viewBox="0 0 105.23 95.1">
  <defs>
    <style>
      .cls-1 {
        fill: #fff;
      }
    </style>
  </defs>
  <g id="Capa_1-2" data-name="Capa 1">
    <path class="cls-1" d="M11.97,60.13c-2.38,3.9-8.22,3.71-10.36-.33C.39,57.49-.19,54.65.06,51.06c.82-11.83.31-23.76.13-35.64-.05-3.08.72-4.68,3.92-5.27,2.67-.49,5.32-1.09,8.06-1.74,3.78-.9,7.42,1.96,7.42,5.84v14.23c0,4.28,4.34,7.15,8.31,5.55,2.5-1,4.89-2.01,7.24-3.13.93-.44,1.33-2.72,1.36-4.17.14-6.9.15-13.81,0-20.72-.05-2.45.57-3.83,3.16-4.42,8.59-1.97,17.14-2.2,25.77-.18,2.65.62,3.63,1.86,3.56,4.64-.19,6.9.09,13.81-.13,20.71-.09,2.93.99,4.36,3.64,5.29,1.62.57,3.23,1.18,4.87,1.82,3.94,1.55,8.21-1.35,8.21-5.58v-14.12c0-3.88,3.64-6.74,7.41-5.85s7.19,1.72,10.68,2.68c.73.2,1.48,1.95,1.49,2.98.09,14.29.11,28.59.03,42.88-.01,2.02-.7,3.42-1.74,4.54-2.6,2.8-7.03,1.85-9.25-1.26s-6.27-4.14-10.02-5.51c-23.88-8.68-47.35-6.78-70.21,3.5-.8.36-1.43,1.08-1.99,1.99Z"/>
    <path class="cls-1" d="M82.3,93.92c-3.69.59-7.01-2.29-6.97-6.03.03-2.81.01-5.55-.24-8.28-.19-2.08-1.16-4.32-3.26-6.15-4.41-3.85-14.56-5.67-23.76-4.73-9.9,1.01-17.21,4.59-17.6,9.07-.42,4.8-.18,9.61-.23,14.41,0,.78,0,1.56,0,2.89-6.44-1.04-12.29-1.91-17.95-2.97-.8-.15-1.13-1.23-1.02-1.86,1.46-8.5,3.03-17.01,4.57-25.51.04-.21.23-.44.15-.64-1.47-4.08,4.18-5.29,11.62-6.29,19.51-2.63,38.58-2.55,57.29,1.18,1.78.35,3.86,1.41,4.03,2.22,1.96,9.56,3.52,19.14,5.36,28.71.29,1.51-.41,2.36-3.93,2.8-2.68.33-5.31.74-8.06,1.18Z"/>
  </g>
</svg>